<?xml version="1.0" encoding="UTF-8"?>
<svg xmlns="http://www.w3.org/2000/svg" xmlns:xlink="http://www.w3.org/1999/xlink" width="200px" height="200px" viewBox="0 0 200 200" version="1.1">
<g id="surface1">
<path style=" stroke:none;fill-rule:nonzero;fill:rgb(0%,0%,0%);fill-opacity:1;" d="M 80 63.199219 C 80 64.265625 80.601562 64.398438 84.800781 64.398438 L 89.535156 64.332031 L 89.601562 66.867188 L 89.667969 69.398438 L 100.199219 69.535156 L 110.667969 69.667969 L 110.667969 66.800781 C 110.667969 64 110.667969 64 113.066406 64 L 115.535156 64 L 115.199219 71.667969 C 114.867188 78.734375 114.933594 79.332031 116 79.332031 C 117.132812 79.332031 117.199219 78.734375 116.867188 71.601562 L 116.464844 63.933594 L 118.398438 64.132812 C 119.734375 64.265625 120.332031 64 120.535156 63.132812 C 120.734375 62.066406 119.464844 62 100.398438 62 C 81.132812 62 80 62.066406 80 63.199219 Z M 108 65.265625 C 108 66.667969 105.867188 67.132812 99.464844 67 C 92.535156 66.867188 91.535156 66.667969 92.332031 65.398438 C 92.867188 64.535156 108 64.398438 108 65.265625 Z M 108 65.265625 "/>
<path style=" stroke:none;fill-rule:nonzero;fill:rgb(0%,0%,0%);fill-opacity:1;" d="M 89.535156 75.464844 C 90.132812 81.800781 94.132812 86 99.800781 86 C 106.199219 86 110.667969 81.265625 110.667969 74.464844 L 110.667969 71.332031 L 89.132812 71.332031 Z M 107.867188 76 C 108.066406 78.265625 105.867188 81.667969 103.265625 83 C 100.734375 84.332031 97.601562 83.933594 95.066406 81.933594 C 93.332031 80.601562 91.601562 75.867188 92.332031 74.601562 C 92.601562 74.199219 95.734375 74 100.199219 74.132812 C 107.601562 74.332031 107.667969 74.332031 107.867188 76 Z M 107.867188 76 "/>
<path style=" stroke:none;fill-rule:nonzero;fill:rgb(0%,0%,0%);fill-opacity:1;" d="M 88.535156 89.265625 C 81.933594 91.398438 78 94.535156 78 97.734375 C 78 98.867188 80.066406 100.332031 88.464844 105.066406 C 94.265625 108.332031 99.332031 111.066406 99.734375 111.199219 C 100.199219 111.332031 105.332031 108.667969 111.265625 105.332031 C 120.199219 100.199219 122 99 122 97.734375 C 122 94.332031 117.265625 90.734375 110.332031 88.933594 C 105.398438 87.601562 93.199219 87.800781 88.535156 89.265625 Z M 110.667969 91.601562 C 115.800781 93.132812 118.667969 95 118.667969 96.800781 C 118.667969 98.066406 117.066406 99.265625 109.867188 103.332031 C 105 106.066406 100.667969 108.398438 100.199219 108.535156 C 99.734375 108.667969 98.535156 108.199219 97.535156 107.464844 C 96.535156 106.734375 92.601562 104.464844 88.800781 102.332031 C 85 100.265625 81.734375 98.132812 81.535156 97.601562 C 81.332031 97.066406 81.734375 96 82.398438 95.265625 C 86.464844 90.734375 101.265625 88.800781 110.667969 91.601562 Z M 110.667969 91.601562 "/>
<path style=" stroke:none;fill-rule:nonzero;fill:rgb(0%,0%,0%);fill-opacity:1;" d="M 64.667969 99.800781 C 64.667969 100.132812 67.535156 101.464844 71.066406 102.933594 C 74.535156 104.332031 77.265625 105.601562 77.132812 105.800781 C 76.933594 105.933594 73.734375 104.867188 69.933594 103.332031 C 62.464844 100.464844 62 100.332031 62 101.265625 C 62 101.601562 66.199219 103.265625 71.398438 105 C 76.535156 106.734375 80.601562 108.265625 80.464844 108.464844 C 80.265625 108.601562 75.601562 107.332031 70 105.667969 C 61.199219 103 58.199219 102.398438 59.398438 103.667969 C 59.601562 103.800781 64.464844 105.265625 70.199219 106.800781 C 76 108.398438 80.464844 109.734375 80.132812 109.867188 C 79.800781 109.933594 75 109 69.398438 107.667969 C 58.800781 105.199219 56.601562 104.933594 57.734375 105.933594 C 58.867188 107.066406 78.867188 110.667969 81.398438 110.265625 C 83 110 84.601562 110.199219 86.265625 111 C 89.535156 112.601562 89.332031 113.601562 85.867188 113.066406 C 84.265625 112.867188 81.199219 112.667969 79 112.667969 C 76.800781 112.667969 70.667969 112.265625 65.332031 111.734375 C 60 111.265625 55.464844 111 55.132812 111.132812 C 53.464844 112.066406 56.535156 112.535156 66.265625 113 C 82.132812 113.667969 83.867188 114.535156 68.601562 114.132812 C 59.132812 113.867188 55.398438 114 55.066406 114.601562 C 54.734375 115.132812 66 115.332031 99.933594 115.332031 C 133.734375 115.332031 145.332031 115.132812 145.332031 114.535156 C 145.332031 114 141.734375 113.867188 131.867188 114.132812 C 116.199219 114.535156 117.535156 113.734375 133.667969 113 C 143 112.601562 146.398438 112 145.265625 111.066406 C 145 110.867188 131 112 121.332031 112.933594 C 118.667969 113.199219 117.933594 113.066406 118.667969 112.601562 C 119.464844 112 119.398438 112 118.332031 112.398438 C 115.933594 113.265625 112.800781 113.464844 112.398438 112.734375 C 111.667969 111.535156 115.933594 109.800781 118.601562 110.265625 C 121.199219 110.734375 142.667969 106.800781 142.667969 105.867188 C 142.667969 105 141.132812 105.199219 130.867188 107.667969 C 117.667969 110.867188 116.464844 110.332031 129.265625 107 C 139.667969 104.265625 141.265625 103.734375 140.535156 103 C 140.332031 102.800781 135.734375 103.933594 130.265625 105.667969 C 124.867188 107.332031 120.199219 108.601562 119.867188 108.535156 C 119.535156 108.398438 123.132812 107 127.800781 105.398438 C 137.199219 102.199219 139.332031 101.199219 138.265625 100.867188 C 137.867188 100.734375 134 102 129.667969 103.667969 C 125.332031 105.332031 121.667969 106.601562 121.535156 106.464844 C 121.464844 106.332031 124.398438 104.933594 128.132812 103.332031 C 131.933594 101.734375 135.265625 100.199219 135.667969 99.867188 C 137.464844 98.265625 132.667969 100.066406 117.464844 106.667969 C 108.265625 110.667969 100.398438 114 100.132812 114 C 99.667969 114 87.464844 108.800781 68.800781 100.601562 C 65.667969 99.265625 64.667969 99.066406 64.667969 99.800781 Z M 64.667969 99.800781 "/>
<path style=" stroke:none;fill-rule:nonzero;fill:rgb(0%,0%,0%);fill-opacity:1;" d="M 56 108.601562 C 56 109.199219 78.464844 112.398438 79.066406 111.867188 C 79.332031 111.535156 58.800781 108 56.800781 108 C 56.332031 108 56 108.265625 56 108.601562 Z M 56 108.601562 "/>
<path style=" stroke:none;fill-rule:nonzero;fill:rgb(0%,0%,0%);fill-opacity:1;" d="M 130.667969 109.867188 C 118.933594 111.867188 119.265625 112.601562 131.132812 111.066406 C 143.066406 109.464844 144 109.265625 144 108.601562 C 144 107.734375 142.398438 107.933594 130.667969 109.867188 Z M 130.667969 109.867188 "/>
<path style=" stroke:none;fill-rule:nonzero;fill:rgb(0%,0%,0%);fill-opacity:1;" d="M 54.332031 117.332031 C 53.199219 119.132812 55.398438 119.332031 75.667969 119.332031 C 88.867188 119.332031 96.734375 119.601562 97 120 C 97.535156 120.867188 102.199219 120.867188 103.066406 120 C 103.464844 119.601562 112.066406 119.265625 124.667969 119.199219 C 142.800781 119 145.667969 118.867188 145.667969 118 C 145.667969 117.132812 140.066406 117 100.199219 116.800781 C 70.199219 116.734375 54.601562 116.867188 54.332031 117.332031 Z M 54.332031 117.332031 "/>
<path style=" stroke:none;fill-rule:nonzero;fill:rgb(0%,0%,0%);fill-opacity:1;" d="M 84 127.398438 C 84 129.066406 83.800781 129.332031 82.734375 129 C 81.132812 128.535156 79.332031 130.800781 79.800781 132.667969 C 80.132812 134 81.132812 134.464844 84.199219 134.601562 C 86 134.667969 86 134.667969 86 130 C 86 126.265625 85.800781 125.332031 85 125.332031 C 84.332031 125.332031 84 126 84 127.398438 Z M 84 131.601562 C 84 132.132812 83.734375 132.734375 83.464844 132.933594 C 82.601562 133.464844 81.132812 132.199219 81.601562 131.398438 C 82.265625 130.332031 84 130.464844 84 131.601562 Z M 84 131.601562 "/>
<path style=" stroke:none;fill-rule:nonzero;fill:rgb(0%,0%,0%);fill-opacity:1;" d="M 74 130.332031 L 74 134.667969 L 76.332031 134.667969 C 77.933594 134.667969 78.667969 134.332031 78.667969 133.667969 C 78.667969 133.132812 78.066406 132.667969 77.332031 132.667969 C 76.601562 132.667969 76 132.199219 76 131.667969 C 76 131.132812 76.601562 130.667969 77.332031 130.667969 C 78.066406 130.667969 78.667969 130.332031 78.667969 130 C 78.667969 129.601562 78.066406 129.332031 77.332031 129.332031 C 76.601562 129.332031 76 128.867188 76 128.332031 C 76 127.734375 76.601562 127.332031 77.667969 127.332031 C 78.601562 127.332031 79.332031 127 79.332031 126.667969 C 79.332031 126.265625 78.132812 126 76.667969 126 L 74 126 Z M 74 130.332031 "/>
<path style=" stroke:none;fill-rule:nonzero;fill:rgb(0%,0%,0%);fill-opacity:1;" d="M 93.667969 127.398438 C 94.667969 130.601562 96.800781 134.667969 97.398438 134.667969 C 97.734375 134.667969 98.332031 133.933594 98.667969 133 C 99 132.066406 99.867188 130.132812 100.601562 128.667969 C 101.867188 126.066406 101.867188 126 100.601562 126 C 99.933594 126 99.332031 126.066406 99.332031 126.132812 C 99.332031 126.265625 98.867188 127.535156 98.398438 129 C 97.800781 130.734375 97.332031 131.332031 97.066406 130.667969 C 96.867188 130.132812 96.398438 128.867188 96.066406 127.800781 C 95.199219 125.667969 93 125.199219 93.667969 127.398438 Z M 93.667969 127.398438 "/>
<path style=" stroke:none;fill-rule:nonzero;fill:rgb(0%,0%,0%);fill-opacity:1;" d="M 87.867188 129.066406 C 87.535156 129.332031 87.332031 130.535156 87.332031 131.800781 C 87.332031 134.332031 88.398438 135.066406 91.066406 134.398438 C 92.535156 134 92.734375 133.667969 92.535156 131.464844 C 92.265625 128.398438 91.066406 128.199219 90.800781 131.199219 C 90.535156 134 89.132812 133.667969 88.667969 130.734375 C 88.464844 129.535156 88.132812 128.800781 87.867188 129.066406 Z M 87.867188 129.066406 "/>
<path style=" stroke:none;fill-rule:nonzero;fill:rgb(0%,0%,0%);fill-opacity:1;" d="M 102.464844 130 C 100.601562 132.734375 101.933594 134.398438 106.199219 134.601562 C 107.867188 134.667969 108 134.464844 108 132 C 108 129.800781 107.800781 129.332031 106.734375 129.332031 C 106 129.332031 105 129.132812 104.464844 128.933594 C 103.867188 128.734375 103.066406 129.199219 102.464844 130 Z M 106 131.535156 C 106 132.066406 105.800781 132.667969 105.535156 132.867188 C 104.933594 133.464844 103.265625 132 103.734375 131.265625 C 104.265625 130.332031 106 130.535156 106 131.535156 Z M 106 131.535156 "/>
<path style=" stroke:none;fill-rule:nonzero;fill:rgb(0%,0%,0%);fill-opacity:1;" d="M 110.667969 129.132812 C 109.199219 129.332031 109 129.734375 109.066406 131.800781 C 109.132812 134.800781 110.667969 135.667969 110.667969 132.734375 C 110.667969 131.332031 111 130.667969 111.667969 130.667969 C 112.332031 130.667969 112.667969 131.332031 112.667969 132.667969 C 112.667969 134 113 134.667969 113.667969 134.667969 C 114.332031 134.667969 114.667969 134 114.667969 132.464844 C 114.667969 130.464844 113.601562 128.535156 112.734375 128.734375 C 112.464844 128.800781 111.601562 129 110.667969 129.132812 Z M 110.667969 129.132812 "/>
<path style=" stroke:none;fill-rule:nonzero;fill:rgb(0%,0%,0%);fill-opacity:1;" d="M 116.734375 129.933594 C 114.734375 131.933594 116 134.601562 118.867188 134.667969 C 120.398438 134.667969 120.332031 133.535156 118.667969 133 C 116.933594 132.464844 116.933594 131.332031 118.667969 130.867188 C 119.464844 130.667969 119.933594 130.199219 119.800781 129.800781 C 119.398438 128.535156 118.132812 128.535156 116.734375 129.933594 Z M 116.734375 129.933594 "/>
<path style=" stroke:none;fill-rule:nonzero;fill:rgb(0%,0%,0%);fill-opacity:1;" d="M 121.867188 129.398438 C 120.398438 130.199219 120.332031 132.867188 121.667969 134 C 122.800781 134.933594 126 134.398438 126 133.265625 C 126 132.800781 125.332031 132.667969 124.332031 132.933594 C 123.398438 133.199219 122.667969 133.066406 122.667969 132.667969 C 122.667969 132.332031 123.601562 132 124.734375 132 C 126.734375 132 126.800781 131.933594 125.867188 130.464844 C 124.667969 128.734375 123.464844 128.398438 121.867188 129.398438 Z M 121.867188 129.398438 "/>
</g>
</svg>
