<svg width="162" height="25" viewBox="0 0 162 25" fill="none" xmlns="http://www.w3.org/2000/svg">
<g clip-path="url(#clip0_2_3)">
<path d="M5.30005 1.14752C4.53111 1.19973 3.56866 1.38898 2.8863 1.61087C2.30577 1.80012 2.22938 1.91758 2.20392 2.61587L2.18355 3.09879H1.25675C0.268844 3.09879 0.197551 3.12489 0.0600588 3.47077C-0.0265105 3.68613 -0.0163259 24.4778 0.0702434 24.6998C0.10589 24.7911 0.21792 24.9151 0.319767 24.9803L0.508182 25.0978L1.16 24.7389C4.61259 22.853 8.42164 22.4418 12.3377 23.5251L13.0352 23.7209L13.7126 23.5316C14.5477 23.2966 15.5764 23.0944 16.3504 23.003C17.5215 22.8725 19.6604 22.9508 20.6737 23.1727C22.3695 23.5316 23.6273 24.0014 24.9615 24.752C25.6133 25.1239 25.7457 25.1305 25.9494 24.8172L26.0767 24.6214V14.1211C26.0767 2.69417 26.092 3.34677 25.7966 3.17709C25.7101 3.12489 25.3485 3.09879 24.7527 3.09879H23.8361V2.60281C23.8361 2.04811 23.7902 1.89801 23.5917 1.76749C23.225 1.53255 21.8399 1.23236 20.6737 1.14752C17.71 0.91911 15.2403 1.85232 13.4223 3.87538L13.02 4.32567L12.6534 3.88843C11.5738 2.59629 10.0003 1.67613 8.22813 1.31067C7.74945 1.21278 6.3949 1.06921 6.11482 1.08879C6.04352 1.08879 5.67688 1.11489 5.30005 1.14752ZM8.1161 2.63544C9.80675 3.04657 11.0696 3.82317 12.0982 5.06963L12.5311 5.5917V13.6448C12.5311 18.0759 12.521 21.6978 12.5056 21.6978C12.4904 21.6978 12.3834 21.6195 12.2612 21.5216C11.4261 20.843 9.99007 20.223 8.60496 19.9423C7.05689 19.6225 5.66161 19.5964 3.6094 19.8445L3.2122 19.8901V11.3737V2.85732L3.63487 2.75291C4.0066 2.66154 4.49547 2.57018 5.04543 2.48534C5.14218 2.47229 5.75326 2.46577 6.3949 2.47881C7.31661 2.49187 7.68326 2.53103 8.1161 2.63544ZM21.7788 2.60281C22.0894 2.66154 22.456 2.74639 22.5936 2.79206L22.8431 2.87038L22.8583 11.3802L22.8685 19.8901L22.4765 19.8445C21.3154 19.7074 20.8826 19.6748 20.0881 19.6748C17.7507 19.6748 15.6935 20.2425 14.0741 21.3389L13.5496 21.6913V13.6448V5.59824L13.8959 5.161C15.0824 3.66654 16.4726 2.90301 18.7692 2.48534C19.1308 2.42008 21.2441 2.50492 21.7788 2.60281ZM2.24466 12.6463V20.8886L2.3516 21.0387C2.51456 21.2606 2.65714 21.3062 3.01869 21.2345C3.78254 21.0909 5.09636 20.9799 6.03844 20.9799C7.43882 20.9799 8.61515 21.1758 9.73036 21.5934L10.1632 21.7565L9.67943 21.7109C8.91559 21.639 6.70553 21.6652 6.08936 21.75C4.50564 21.9849 2.79972 22.5136 1.36878 23.2184L1.02251 23.3881V13.8993V4.40398H1.63358H2.24466V12.6463ZM25.0582 13.8993V23.3881L24.7171 23.2184C23.0569 22.4157 21.2135 21.8806 19.4363 21.6913C18.7386 21.6195 16.8138 21.6456 16.1467 21.7305C15.9532 21.7565 15.9837 21.737 16.3249 21.5999C16.8953 21.3781 17.8984 21.13 18.6164 21.0387C19.3803 20.9408 21.6362 20.9996 22.4866 21.1365C23.2148 21.2606 23.5 21.2671 23.6425 21.1693C23.8921 20.9996 23.887 21.2345 23.887 12.5288V4.40398H24.4727H25.0582V13.8993Z" fill="#0D5FF9"/>
<path d="M47.0527 20.0184V22.7391H36.4844V20.0184H47.0527ZM37.4551 2.83289V22.7391H34.0234V2.83289H37.4551ZM45.6719 11.1454V13.8251H36.4844V11.1454H45.6719ZM46.9844 2.83289V5.56726H36.4844V2.83289H46.9844ZM58.2773 19.6766V1.73914H61.5859V22.7391H58.5918L58.2773 19.6766ZM48.6523 15.5067V15.2196C48.6523 14.0985 48.7845 13.0777 49.0488 12.1571C49.3132 11.2274 49.696 10.4299 50.1973 9.76453C50.6986 9.09005 51.3092 8.57507 52.0293 8.2196C52.7493 7.85502 53.5605 7.67273 54.4629 7.67273C55.3561 7.67273 56.14 7.84591 56.8145 8.19226C57.4889 8.53861 58.0632 9.03536 58.5371 9.6825C59.0111 10.3205 59.3893 11.0861 59.6719 11.9794C59.9544 12.8635 60.1549 13.8479 60.2734 14.9325V15.8485C60.1549 16.9058 59.9544 17.8719 59.6719 18.7469C59.3893 19.6219 59.0111 20.3785 58.5371 21.0165C58.0632 21.6545 57.4844 22.1467 56.8008 22.493C56.1263 22.8394 55.3379 23.0126 54.4355 23.0126C53.5423 23.0126 52.7357 22.8257 52.0156 22.452C51.3047 22.0783 50.6986 21.5542 50.1973 20.8798C49.696 20.2053 49.3132 19.4123 49.0488 18.5009C48.7845 17.5803 48.6523 16.5822 48.6523 15.5067ZM51.9473 15.2196V15.5067C51.9473 16.1812 52.0065 16.8101 52.125 17.3934C52.2526 17.9768 52.4486 18.4917 52.7129 18.9384C52.9772 19.3759 53.319 19.7222 53.7383 19.9774C54.1667 20.2235 54.6771 20.3466 55.2695 20.3466C56.0169 20.3466 56.6322 20.1825 57.1152 19.8544C57.5983 19.5262 57.9766 19.0842 58.25 18.5282C58.5326 17.9631 58.724 17.3342 58.8242 16.6415V14.1669C58.7695 13.6291 58.6556 13.1278 58.4824 12.663C58.3184 12.1981 58.0951 11.7925 57.8125 11.4462C57.5299 11.0907 57.179 10.8173 56.7598 10.6259C56.3496 10.4253 55.862 10.3251 55.2969 10.3251C54.6953 10.3251 54.1849 10.4527 53.7656 10.7079C53.3464 10.9631 53 11.314 52.7266 11.7606C52.4622 12.2072 52.2663 12.7268 52.1387 13.3192C52.0111 13.9117 51.9473 14.5451 51.9473 15.2196ZM73.9316 19.2528V7.94617H77.2402V22.7391H74.123L73.9316 19.2528ZM74.3965 16.1766L75.5039 16.1493C75.5039 17.1428 75.3945 18.0588 75.1758 18.8973C74.957 19.7268 74.6198 20.4514 74.1641 21.0712C73.7083 21.6818 73.125 22.1604 72.4141 22.5067C71.7031 22.844 70.8509 23.0126 69.8574 23.0126C69.1374 23.0126 68.4766 22.9078 67.875 22.6981C67.2734 22.4885 66.7539 22.1649 66.3164 21.7274C65.888 21.2899 65.5553 20.7203 65.3184 20.0184C65.0814 19.3166 64.9629 18.4781 64.9629 17.5028V7.94617H68.2578V17.5302C68.2578 18.0679 68.3216 18.5191 68.4492 18.8837C68.5768 19.2391 68.75 19.5262 68.9688 19.745C69.1875 19.9637 69.4427 20.1187 69.7344 20.2098C70.026 20.301 70.3359 20.3466 70.6641 20.3466C71.6029 20.3466 72.3411 20.1643 72.8789 19.7997C73.4258 19.426 73.8132 18.9247 74.041 18.2958C74.278 17.6669 74.3965 16.9605 74.3965 16.1766ZM87.7676 19.1024L93.0039 2.83289H96.791L89.6543 22.7391H87.0977L87.7676 19.1024ZM82.9277 2.83289L88.123 19.1024L88.834 22.7391H86.2637L79.1543 2.83289H82.9277ZM106.402 19.7723V12.7177C106.402 12.189 106.307 11.7333 106.115 11.3505C105.924 10.9677 105.632 10.6714 105.24 10.4618C104.857 10.2522 104.374 10.1473 103.791 10.1473C103.253 10.1473 102.788 10.2385 102.396 10.4208C102.005 10.6031 101.699 10.8492 101.48 11.1591C101.262 11.469 101.152 11.8199 101.152 12.2118H97.8711C97.8711 11.6285 98.0124 11.0634 98.2949 10.5165C98.5775 9.9696 98.9876 9.48197 99.5254 9.05359C100.063 8.6252 100.706 8.28796 101.453 8.04187C102.201 7.79578 103.039 7.67273 103.969 7.67273C105.081 7.67273 106.065 7.85958 106.922 8.23328C107.788 8.60697 108.467 9.17208 108.959 9.92859C109.46 10.676 109.711 11.6148 109.711 12.745V19.3212C109.711 19.9956 109.757 20.6018 109.848 21.1395C109.948 21.6682 110.089 22.1285 110.271 22.5204V22.7391H106.895C106.74 22.3837 106.617 21.9325 106.525 21.3856C106.443 20.8296 106.402 20.2919 106.402 19.7723ZM106.881 13.743L106.908 15.7802H104.543C103.932 15.7802 103.395 15.8394 102.93 15.9579C102.465 16.0673 102.077 16.2313 101.768 16.4501C101.458 16.6688 101.225 16.9331 101.07 17.243C100.915 17.5529 100.838 17.9038 100.838 18.2958C100.838 18.6877 100.929 19.0477 101.111 19.3759C101.294 19.6949 101.558 19.9455 101.904 20.1278C102.26 20.3101 102.688 20.4012 103.189 20.4012C103.864 20.4012 104.452 20.2645 104.953 19.9911C105.464 19.7085 105.865 19.3667 106.156 18.9657C106.448 18.5555 106.603 18.1682 106.621 17.8036L107.688 19.2665C107.578 19.6402 107.391 20.0412 107.127 20.4696C106.863 20.898 106.516 21.3081 106.088 21.7001C105.669 22.0829 105.163 22.3973 104.57 22.6434C103.987 22.8895 103.312 23.0126 102.547 23.0126C101.581 23.0126 100.719 22.8212 99.9629 22.4384C99.2064 22.0464 98.6139 21.5223 98.1855 20.8661C97.7572 20.2007 97.543 19.4488 97.543 18.6102C97.543 17.8264 97.6888 17.1337 97.9805 16.5321C98.2812 15.9214 98.7188 15.411 99.293 15.0009C99.8763 14.5907 100.587 14.2808 101.426 14.0712C102.264 13.8524 103.221 13.743 104.297 13.743H106.881ZM116.424 11.1044V22.7391H113.129V7.94617H116.232L116.424 11.1044ZM115.836 14.7958L114.77 14.7821C114.779 13.7339 114.924 12.7723 115.207 11.8973C115.499 11.0223 115.9 10.2704 116.41 9.64148C116.93 9.01257 117.549 8.5295 118.27 8.19226C118.99 7.84591 119.792 7.67273 120.676 7.67273C121.387 7.67273 122.029 7.77299 122.604 7.97351C123.187 8.16492 123.684 8.47937 124.094 8.91687C124.513 9.35437 124.832 9.92403 125.051 10.6259C125.27 11.3186 125.379 12.1708 125.379 13.1825V22.7391H122.07V13.1688C122.07 12.4579 121.965 11.8973 121.756 11.4872C121.555 11.0679 121.259 10.7717 120.867 10.5985C120.484 10.4162 120.006 10.3251 119.432 10.3251C118.867 10.3251 118.361 10.4436 117.914 10.6805C117.467 10.9175 117.089 11.2411 116.779 11.6512C116.479 12.0614 116.246 12.5354 116.082 13.0731C115.918 13.6109 115.836 14.1851 115.836 14.7958ZM134.785 20.3876C135.323 20.3876 135.806 20.2828 136.234 20.0731C136.672 19.8544 137.023 19.5536 137.287 19.1708C137.561 18.788 137.711 18.3459 137.738 17.8446H140.842C140.824 18.8016 140.541 19.6721 139.994 20.4559C139.447 21.2398 138.723 21.8641 137.82 22.329C136.918 22.7847 135.92 23.0126 134.826 23.0126C133.696 23.0126 132.712 22.8212 131.873 22.4384C131.035 22.0464 130.337 21.5087 129.781 20.8251C129.225 20.1415 128.806 19.3531 128.523 18.4598C128.25 17.5666 128.113 16.6096 128.113 15.5887V15.1102C128.113 14.0894 128.25 13.1324 128.523 12.2391C128.806 11.3368 129.225 10.5438 129.781 9.86023C130.337 9.17664 131.035 8.64343 131.873 8.26062C132.712 7.86869 133.691 7.67273 134.812 7.67273C135.997 7.67273 137.036 7.90971 137.93 8.38367C138.823 8.84851 139.525 9.5002 140.035 10.3387C140.555 11.1682 140.824 12.1343 140.842 13.2372H137.738C137.711 12.6903 137.574 12.1981 137.328 11.7606C137.091 11.314 136.754 10.9585 136.316 10.6942C135.888 10.4299 135.373 10.2977 134.771 10.2977C134.106 10.2977 133.555 10.4344 133.117 10.7079C132.68 10.9722 132.338 11.3368 132.092 11.8016C131.846 12.2574 131.668 12.7723 131.559 13.3466C131.458 13.9117 131.408 14.4996 131.408 15.1102V15.5887C131.408 16.1994 131.458 16.7919 131.559 17.3661C131.659 17.9403 131.832 18.4553 132.078 18.911C132.333 19.3576 132.68 19.7177 133.117 19.9911C133.555 20.2554 134.111 20.3876 134.785 20.3876ZM149.893 23.0126C148.799 23.0126 147.81 22.8348 146.926 22.4794C146.051 22.1148 145.303 21.6089 144.684 20.9618C144.073 20.3147 143.604 19.5536 143.275 18.6786C142.947 17.8036 142.783 16.8602 142.783 15.8485V15.3016C142.783 14.1441 142.952 13.0959 143.289 12.1571C143.626 11.2183 144.096 10.4162 144.697 9.75085C145.299 9.07638 146.01 8.5614 146.83 8.20593C147.65 7.85046 148.539 7.67273 149.496 7.67273C150.553 7.67273 151.479 7.85046 152.271 8.20593C153.064 8.5614 153.721 9.0627 154.24 9.70984C154.769 10.3479 155.161 11.1089 155.416 11.993C155.68 12.8772 155.812 13.8524 155.812 14.9188V16.327H144.383V13.9618H152.559V13.702C152.54 13.1096 152.422 12.5536 152.203 12.0341C151.993 11.5145 151.67 11.0953 151.232 10.7762C150.795 10.4572 150.212 10.2977 149.482 10.2977C148.936 10.2977 148.448 10.4162 148.02 10.6532C147.6 10.8811 147.249 11.2137 146.967 11.6512C146.684 12.0887 146.465 12.6174 146.311 13.2372C146.165 13.8479 146.092 14.536 146.092 15.3016V15.8485C146.092 16.4956 146.178 17.0972 146.352 17.6532C146.534 18.2001 146.798 18.6786 147.145 19.0887C147.491 19.4989 147.91 19.8225 148.402 20.0594C148.895 20.2873 149.455 20.4012 150.084 20.4012C150.877 20.4012 151.583 20.2417 152.203 19.9227C152.823 19.6037 153.361 19.1525 153.816 18.5692L155.553 20.2509C155.234 20.7157 154.819 21.1623 154.309 21.5907C153.798 22.01 153.174 22.3518 152.436 22.6161C151.706 22.8804 150.859 23.0126 149.893 23.0126Z" fill="#002935"/>
</g>
<defs>
<clipPath id="clip0_2_3">
<rect width="162" height="25" fill="white"/>
</clipPath>
</defs>
</svg>
